<mxfile host="app.diagrams.net" modified="2021-11-23T20:13:02.628Z" agent="5.0 (Windows NT 10.0; Win64; x64) AppleWebKit/537.36 (KHTML, like Gecko) Chrome/95.0.4638.69 Safari/537.36 Edg/95.0.1020.53" etag="nfHYKJPg7slhlz93-9o9" version="15.8.3" type="github" pages="2">
  <diagram id="kuCVEJGDZSMDWfpf4Zhf" name="Page-1">
    <mxGraphModel dx="1038" dy="539" grid="1" gridSize="10" guides="1" tooltips="1" connect="1" arrows="1" fold="1" page="1" pageScale="1" pageWidth="827" pageHeight="1169" math="0" shadow="0">
      <root>
        <mxCell id="0" />
        <mxCell id="1" parent="0" />
        <mxCell id="la1zOp_KD3fSP7tozzDj-20" value="" style="html=1;fontFamily=Times New Roman;" parent="1" vertex="1">
          <mxGeometry x="149" y="70" width="560" height="460" as="geometry" />
        </mxCell>
        <mxCell id="la1zOp_KD3fSP7tozzDj-25" style="rounded=0;orthogonalLoop=1;jettySize=auto;html=1;exitX=0.5;exitY=0.5;exitDx=0;exitDy=0;exitPerimeter=0;fontFamily=Times New Roman;" parent="1" source="la1zOp_KD3fSP7tozzDj-14" edge="1">
          <mxGeometry relative="1" as="geometry">
            <mxPoint x="199" y="250" as="targetPoint" />
          </mxGeometry>
        </mxCell>
        <mxCell id="la1zOp_KD3fSP7tozzDj-14" value="&lt;span style=&quot;font-size: 12.0pt ; font-family: &amp;#34;times new roman&amp;#34; , serif&quot;&gt;Customer&lt;/span&gt;" style="shape=umlActor;verticalLabelPosition=bottom;verticalAlign=top;html=1;" parent="1" vertex="1">
          <mxGeometry x="40" y="140" width="30" height="60" as="geometry" />
        </mxCell>
        <mxCell id="la1zOp_KD3fSP7tozzDj-24" style="rounded=0;orthogonalLoop=1;jettySize=auto;html=1;exitX=0.5;exitY=0.5;exitDx=0;exitDy=0;exitPerimeter=0;entryX=0;entryY=0.5;entryDx=0;entryDy=0;fontFamily=Times New Roman;" parent="1" source="la1zOp_KD3fSP7tozzDj-15" target="la1zOp_KD3fSP7tozzDj-19" edge="1">
          <mxGeometry relative="1" as="geometry" />
        </mxCell>
        <mxCell id="la1zOp_KD3fSP7tozzDj-15" value="&lt;span style=&quot;font-size: 12.0pt ; font-family: &amp;#34;times new roman&amp;#34; , serif&quot;&gt;Cashier&amp;nbsp;&lt;/span&gt;" style="shape=umlActor;verticalLabelPosition=bottom;verticalAlign=top;html=1;" parent="1" vertex="1">
          <mxGeometry x="40" y="290" width="30" height="60" as="geometry" />
        </mxCell>
        <mxCell id="la1zOp_KD3fSP7tozzDj-23" style="rounded=0;orthogonalLoop=1;jettySize=auto;html=1;exitX=0.5;exitY=0.5;exitDx=0;exitDy=0;exitPerimeter=0;fontFamily=Times New Roman;" parent="1" source="la1zOp_KD3fSP7tozzDj-18" target="la1zOp_KD3fSP7tozzDj-22" edge="1">
          <mxGeometry relative="1" as="geometry" />
        </mxCell>
        <mxCell id="la1zOp_KD3fSP7tozzDj-18" value="&lt;span style=&quot;font-size: 11.0pt ; font-family: &amp;#34;times new roman&amp;#34; , serif&quot;&gt;Manager&amp;nbsp;&lt;/span&gt;" style="shape=umlActor;verticalLabelPosition=bottom;verticalAlign=top;html=1;fontFamily=Times New Roman;" parent="1" vertex="1">
          <mxGeometry x="40" y="440" width="30" height="60" as="geometry" />
        </mxCell>
        <mxCell id="la1zOp_KD3fSP7tozzDj-28" value="" style="edgeStyle=none;rounded=0;orthogonalLoop=1;jettySize=auto;html=1;fontFamily=Times New Roman;" parent="1" source="la1zOp_KD3fSP7tozzDj-19" target="la1zOp_KD3fSP7tozzDj-27" edge="1">
          <mxGeometry relative="1" as="geometry" />
        </mxCell>
        <mxCell id="la1zOp_KD3fSP7tozzDj-93" value="&lt;span style=&quot;font-family: &amp;#34;courier&amp;#34;&quot;&gt;&amp;lt;&amp;lt;includes&amp;gt;&amp;gt;&lt;/span&gt;" style="edgeLabel;html=1;align=center;verticalAlign=middle;resizable=0;points=[];fontSize=10;" parent="la1zOp_KD3fSP7tozzDj-28" vertex="1" connectable="0">
          <mxGeometry x="-0.32" y="1" relative="1" as="geometry">
            <mxPoint x="13" y="1" as="offset" />
          </mxGeometry>
        </mxCell>
        <mxCell id="la1zOp_KD3fSP7tozzDj-36" style="edgeStyle=none;rounded=0;orthogonalLoop=1;jettySize=auto;html=1;exitX=1;exitY=0;exitDx=0;exitDy=0;entryX=0;entryY=0.5;entryDx=0;entryDy=0;fontFamily=Times New Roman;" parent="1" source="la1zOp_KD3fSP7tozzDj-19" target="la1zOp_KD3fSP7tozzDj-31" edge="1">
          <mxGeometry relative="1" as="geometry" />
        </mxCell>
        <mxCell id="la1zOp_KD3fSP7tozzDj-37" style="edgeStyle=none;rounded=0;orthogonalLoop=1;jettySize=auto;html=1;exitX=0.5;exitY=0;exitDx=0;exitDy=0;fontFamily=Times New Roman;entryX=0.021;entryY=0.617;entryDx=0;entryDy=0;entryPerimeter=0;" parent="1" source="la1zOp_KD3fSP7tozzDj-19" target="la1zOp_KD3fSP7tozzDj-30" edge="1">
          <mxGeometry relative="1" as="geometry" />
        </mxCell>
        <mxCell id="la1zOp_KD3fSP7tozzDj-38" style="edgeStyle=none;rounded=0;orthogonalLoop=1;jettySize=auto;html=1;exitX=0.5;exitY=1;exitDx=0;exitDy=0;fontFamily=Times New Roman;entryX=0;entryY=0.5;entryDx=0;entryDy=0;" parent="1" source="la1zOp_KD3fSP7tozzDj-19" target="la1zOp_KD3fSP7tozzDj-29" edge="1">
          <mxGeometry relative="1" as="geometry" />
        </mxCell>
        <mxCell id="la1zOp_KD3fSP7tozzDj-40" style="edgeStyle=none;rounded=0;orthogonalLoop=1;jettySize=auto;html=1;exitX=1;exitY=1;exitDx=0;exitDy=0;entryX=0;entryY=0.5;entryDx=0;entryDy=0;fontFamily=Times New Roman;" parent="1" source="la1zOp_KD3fSP7tozzDj-19" target="la1zOp_KD3fSP7tozzDj-39" edge="1">
          <mxGeometry relative="1" as="geometry" />
        </mxCell>
        <mxCell id="la1zOp_KD3fSP7tozzDj-19" value="&lt;span style=&quot;font-size: 12.0pt ; font-family: &amp;#34;times new roman&amp;#34; , serif&quot;&gt;ProcessCheckout&lt;/span&gt;" style="ellipse;whiteSpace=wrap;html=1;fontFamily=Times New Roman;" parent="1" vertex="1">
          <mxGeometry x="199" y="220" width="114" height="60" as="geometry" />
        </mxCell>
        <mxCell id="la1zOp_KD3fSP7tozzDj-21" value="&lt;span style=&quot;font-size: 12.0pt ; font-family: &amp;#34;times new roman&amp;#34; , serif&quot;&gt;&lt;span style=&quot;letter-spacing: -0.3pt&quot;&gt;&amp;nbsp;&lt;/span&gt;cash&lt;span style=&quot;letter-spacing: -0.25pt&quot;&gt; &lt;/span&gt;register system&lt;/span&gt;" style="text;html=1;align=center;verticalAlign=middle;resizable=0;points=[];autosize=1;strokeColor=none;fillColor=none;fontFamily=Times New Roman;" parent="1" vertex="1">
          <mxGeometry x="149" y="80" width="150" height="20" as="geometry" />
        </mxCell>
        <mxCell id="la1zOp_KD3fSP7tozzDj-22" value="&lt;font face=&quot;times new roman, serif&quot;&gt;&lt;span style=&quot;font-size: 16px&quot;&gt;Initializes&amp;nbsp;&lt;/span&gt;&lt;/font&gt;" style="ellipse;whiteSpace=wrap;html=1;fontFamily=Times New Roman;" parent="1" vertex="1">
          <mxGeometry x="389" y="450" width="114" height="60" as="geometry" />
        </mxCell>
        <mxCell id="la1zOp_KD3fSP7tozzDj-26" style="edgeStyle=none;rounded=0;orthogonalLoop=1;jettySize=auto;html=1;exitX=1;exitY=0;exitDx=0;exitDy=0;fontFamily=Times New Roman;" parent="1" source="la1zOp_KD3fSP7tozzDj-19" target="la1zOp_KD3fSP7tozzDj-19" edge="1">
          <mxGeometry relative="1" as="geometry" />
        </mxCell>
        <mxCell id="la1zOp_KD3fSP7tozzDj-27" value="&lt;font face=&quot;times new roman, serif&quot;&gt;&lt;span style=&quot;font-size: 16px&quot;&gt;DisplaysTotal&lt;/span&gt;&lt;/font&gt;" style="ellipse;whiteSpace=wrap;html=1;fontFamily=Times New Roman;" parent="1" vertex="1">
          <mxGeometry x="409" y="220" width="114" height="60" as="geometry" />
        </mxCell>
        <mxCell id="la1zOp_KD3fSP7tozzDj-29" value="&lt;font face=&quot;times new roman, serif&quot;&gt;&lt;span style=&quot;font-size: 16px&quot;&gt;RegisterSale &amp;amp;PrintReceipt&lt;/span&gt;&lt;/font&gt;" style="ellipse;whiteSpace=wrap;html=1;fontFamily=Times New Roman;" parent="1" vertex="1">
          <mxGeometry x="399" y="360" width="114" height="60" as="geometry" />
        </mxCell>
        <mxCell id="la1zOp_KD3fSP7tozzDj-30" value="&lt;font face=&quot;times new roman, serif&quot;&gt;&lt;span style=&quot;font-size: 16px&quot;&gt;RecordItems&lt;/span&gt;&lt;/font&gt;" style="ellipse;whiteSpace=wrap;html=1;fontFamily=Times New Roman;" parent="1" vertex="1">
          <mxGeometry x="379" y="80" width="114" height="60" as="geometry" />
        </mxCell>
        <mxCell id="la1zOp_KD3fSP7tozzDj-31" value="&lt;font face=&quot;times new roman, serif&quot;&gt;&lt;span style=&quot;font-size: 16px&quot;&gt;DisplaysItem&lt;/span&gt;&lt;/font&gt;" style="ellipse;whiteSpace=wrap;html=1;fontFamily=Times New Roman;" parent="1" vertex="1">
          <mxGeometry x="389" y="150" width="114" height="60" as="geometry" />
        </mxCell>
        <mxCell id="la1zOp_KD3fSP7tozzDj-65" style="edgeStyle=none;rounded=0;orthogonalLoop=1;jettySize=auto;html=1;exitX=0.5;exitY=0;exitDx=0;exitDy=0;entryX=0;entryY=1;entryDx=0;entryDy=0;fontFamily=Times New Roman;fontSize=15;" parent="1" source="la1zOp_KD3fSP7tozzDj-34" target="la1zOp_KD3fSP7tozzDj-19" edge="1">
          <mxGeometry relative="1" as="geometry" />
        </mxCell>
        <mxCell id="la1zOp_KD3fSP7tozzDj-83" value="&lt;span style=&quot;color: rgba(0 , 0 , 0 , 0) ; font-family: monospace ; font-size: 0px ; background-color: rgb(248 , 249 , 250)&quot;&gt;%3CmxGraphModel%3E%3Croot%3E%3CmxCell%20id%3D%220%22%2F%3E%3CmxCell%20id%3D%221%22%20parent%3D%220%22%2F%3E%3CmxCell%20id%3D%222%22%20value%3D%22%26lt%3Bspan%20style%3D%26quot%3Bcolor%3A%20rgb(0%20%2C%200%20%2C%200)%20%3B%20font-family%3A%20%26amp%3B%2334%3Bcourier%26amp%3B%2334%3B%20%3B%20font-style%3A%20normal%20%3B%20font-weight%3A%20400%20%3B%20letter-spacing%3A%20normal%20%3B%20text-align%3A%20center%20%3B%20text-indent%3A%200px%20%3B%20text-transform%3A%20none%20%3B%20word-spacing%3A%200px%20%3B%20background-color%3A%20rgb(255%20%2C%20255%20%2C%20255)%20%3B%20display%3A%20inline%20%3B%20float%3A%20none%26quot%3B%26gt%3B%26lt%3Bfont%20style%3D%26quot%3Bfont-size%3A%2010px%26quot%3B%26gt%3B%26amp%3Blt%3B%26amp%3Blt%3Bincludes%26amp%3Bgt%3B%26amp%3Bgt%3B%26lt%3B%2Ffont%26gt%3B%26lt%3B%2Fspan%26gt%3B%22%20style%3D%22text%3BwhiteSpace%3Dwrap%3Bhtml%3D1%3BfontSize%3D15%3BfontFamily%3DTimes%20New%20Roman%3B%22%20vertex%3D%221%22%20parent%3D%221%22%3E%3CmxGeometry%20x%3D%22373%22%20y%3D%22330%22%20width%3D%2280%22%20height%3D%2230%22%20as%3D%22geometry%22%2F%3E%3C%2FmxCell%3E%3C%2Froot%3E%3C%2FmxGraphModel%&lt;/span&gt;" style="edgeLabel;html=1;align=center;verticalAlign=middle;resizable=0;points=[];fontSize=10;" parent="la1zOp_KD3fSP7tozzDj-65" vertex="1" connectable="0">
          <mxGeometry x="-0.3157" y="3" relative="1" as="geometry">
            <mxPoint as="offset" />
          </mxGeometry>
        </mxCell>
        <mxCell id="la1zOp_KD3fSP7tozzDj-84" value="&lt;span style=&quot;font-family: &amp;#34;courier&amp;#34;&quot;&gt;&amp;lt;&amp;lt;extends&amp;gt;&amp;gt;&lt;/span&gt;&lt;span style=&quot;font-size: 20pt ; font-family: &amp;#34;perpetua&amp;#34;&quot;&gt;&lt;/span&gt;" style="edgeLabel;html=1;align=center;verticalAlign=middle;resizable=0;points=[];fontSize=10;" parent="la1zOp_KD3fSP7tozzDj-65" vertex="1" connectable="0">
          <mxGeometry x="-0.2888" y="2" relative="1" as="geometry">
            <mxPoint as="offset" />
          </mxGeometry>
        </mxCell>
        <mxCell id="la1zOp_KD3fSP7tozzDj-34" value="&lt;span style=&quot;font-size: 12.0pt ; font-family: &amp;#34;times new roman&amp;#34; , serif&quot;&gt;UseDiscount&lt;br&gt;Coupon&lt;br&gt;&lt;/span&gt;" style="ellipse;whiteSpace=wrap;html=1;fontFamily=Times New Roman;" parent="1" vertex="1">
          <mxGeometry x="157" y="360" width="114" height="60" as="geometry" />
        </mxCell>
        <mxCell id="la1zOp_KD3fSP7tozzDj-39" value="&lt;span style=&quot;font-size: 12.0pt ; font-family: &amp;#34;times new roman&amp;#34; , serif&quot;&gt;Payment&lt;/span&gt;" style="ellipse;whiteSpace=wrap;html=1;fontFamily=Times New Roman;" parent="1" vertex="1">
          <mxGeometry x="399" y="290" width="114" height="60" as="geometry" />
        </mxCell>
        <mxCell id="la1zOp_KD3fSP7tozzDj-100" style="edgeStyle=none;rounded=0;orthogonalLoop=1;jettySize=auto;html=1;exitX=0;exitY=0.5;exitDx=0;exitDy=0;entryX=1;entryY=0.5;entryDx=0;entryDy=0;fontSize=10;endArrow=block;endFill=0;" parent="1" source="la1zOp_KD3fSP7tozzDj-43" target="la1zOp_KD3fSP7tozzDj-39" edge="1">
          <mxGeometry relative="1" as="geometry" />
        </mxCell>
        <mxCell id="la1zOp_KD3fSP7tozzDj-43" value="&lt;font face=&quot;times new roman, serif&quot;&gt;&lt;span style=&quot;font-size: 16px&quot;&gt;ByCheck&lt;/span&gt;&lt;/font&gt;" style="ellipse;whiteSpace=wrap;html=1;fontFamily=Times New Roman;" parent="1" vertex="1">
          <mxGeometry x="573" y="290" width="114" height="60" as="geometry" />
        </mxCell>
        <mxCell id="la1zOp_KD3fSP7tozzDj-101" style="edgeStyle=none;rounded=0;orthogonalLoop=1;jettySize=auto;html=1;exitX=0;exitY=0.5;exitDx=0;exitDy=0;fontSize=10;endArrow=block;endFill=0;entryX=1;entryY=0;entryDx=0;entryDy=0;" parent="1" source="la1zOp_KD3fSP7tozzDj-45" target="la1zOp_KD3fSP7tozzDj-39" edge="1">
          <mxGeometry relative="1" as="geometry">
            <mxPoint x="499" y="320" as="targetPoint" />
          </mxGeometry>
        </mxCell>
        <mxCell id="la1zOp_KD3fSP7tozzDj-45" value="&lt;font face=&quot;times new roman, serif&quot;&gt;&lt;span style=&quot;font-size: 16px&quot;&gt;ByCash&lt;/span&gt;&lt;/font&gt;" style="ellipse;whiteSpace=wrap;html=1;fontFamily=Times New Roman;" parent="1" vertex="1">
          <mxGeometry x="573" y="220" width="114" height="60" as="geometry" />
        </mxCell>
        <mxCell id="la1zOp_KD3fSP7tozzDj-102" style="edgeStyle=none;rounded=0;orthogonalLoop=1;jettySize=auto;html=1;exitX=0;exitY=0.5;exitDx=0;exitDy=0;fontSize=10;endArrow=block;endFill=0;entryX=1;entryY=1;entryDx=0;entryDy=0;" parent="1" source="la1zOp_KD3fSP7tozzDj-46" target="la1zOp_KD3fSP7tozzDj-39" edge="1">
          <mxGeometry relative="1" as="geometry">
            <mxPoint x="499" y="320" as="targetPoint" />
          </mxGeometry>
        </mxCell>
        <mxCell id="la1zOp_KD3fSP7tozzDj-46" value="&lt;font face=&quot;times new roman, serif&quot;&gt;&lt;span style=&quot;font-size: 16px&quot;&gt;ByCreditCard&lt;/span&gt;&lt;/font&gt;" style="ellipse;whiteSpace=wrap;html=1;fontFamily=Times New Roman;" parent="1" vertex="1">
          <mxGeometry x="579" y="360" width="114" height="60" as="geometry" />
        </mxCell>
        <mxCell id="la1zOp_KD3fSP7tozzDj-57" style="edgeStyle=none;rounded=0;orthogonalLoop=1;jettySize=auto;html=1;exitX=0.5;exitY=0.5;exitDx=0;exitDy=0;exitPerimeter=0;entryX=1;entryY=0.5;entryDx=0;entryDy=0;fontFamily=Times New Roman;" parent="1" source="la1zOp_KD3fSP7tozzDj-56" target="la1zOp_KD3fSP7tozzDj-46" edge="1">
          <mxGeometry relative="1" as="geometry" />
        </mxCell>
        <mxCell id="la1zOp_KD3fSP7tozzDj-60" style="edgeStyle=none;rounded=0;orthogonalLoop=1;jettySize=auto;html=1;exitX=0.5;exitY=0.5;exitDx=0;exitDy=0;exitPerimeter=0;entryX=1;entryY=0.5;entryDx=0;entryDy=0;fontFamily=Times New Roman;" parent="1" source="la1zOp_KD3fSP7tozzDj-56" target="la1zOp_KD3fSP7tozzDj-43" edge="1">
          <mxGeometry relative="1" as="geometry" />
        </mxCell>
        <mxCell id="la1zOp_KD3fSP7tozzDj-56" value="&lt;font style=&quot;font-size: 17px&quot;&gt;Authorization Center&amp;nbsp;&lt;/font&gt;" style="shape=umlActor;verticalLabelPosition=bottom;verticalAlign=top;html=1;fontFamily=Times New Roman;" parent="1" vertex="1">
          <mxGeometry x="770" y="360" width="30" height="60" as="geometry" />
        </mxCell>
        <mxCell id="la1zOp_KD3fSP7tozzDj-76" value="&lt;span style=&quot;color: rgb(0 , 0 , 0) ; font-family: &amp;#34;courier&amp;#34; ; font-style: normal ; font-weight: 400 ; letter-spacing: normal ; text-align: center ; text-indent: 0px ; text-transform: none ; word-spacing: 0px ; background-color: rgb(255 , 255 , 255) ; display: inline ; float: none&quot;&gt;&lt;font style=&quot;font-size: 10px&quot;&gt;&amp;lt;&amp;lt;includes&amp;gt;&amp;gt;&lt;/font&gt;&lt;/span&gt;" style="text;whiteSpace=wrap;html=1;fontSize=15;fontFamily=Times New Roman;" parent="1" vertex="1">
          <mxGeometry x="289" y="140" width="80" height="30" as="geometry" />
        </mxCell>
        <mxCell id="la1zOp_KD3fSP7tozzDj-79" value="&lt;span style=&quot;color: rgb(0 , 0 , 0) ; font-family: &amp;#34;courier&amp;#34; ; font-style: normal ; font-weight: 400 ; letter-spacing: normal ; text-align: center ; text-indent: 0px ; text-transform: none ; word-spacing: 0px ; background-color: rgb(255 , 255 , 255) ; display: inline ; float: none&quot;&gt;&lt;font style=&quot;font-size: 10px&quot;&gt;&amp;lt;&amp;lt;includes&amp;gt;&amp;gt;&lt;/font&gt;&lt;/span&gt;" style="text;whiteSpace=wrap;html=1;fontSize=15;fontFamily=Times New Roman;" parent="1" vertex="1">
          <mxGeometry x="272" y="330" width="80" height="30" as="geometry" />
        </mxCell>
        <mxCell id="la1zOp_KD3fSP7tozzDj-81" value="&lt;span style=&quot;color: rgb(0 , 0 , 0) ; font-family: &amp;#34;courier&amp;#34; ; font-style: normal ; font-weight: 400 ; letter-spacing: normal ; text-align: center ; text-indent: 0px ; text-transform: none ; word-spacing: 0px ; background-color: rgb(255 , 255 , 255) ; display: inline ; float: none&quot;&gt;&lt;font style=&quot;font-size: 10px&quot;&gt;&amp;lt;&amp;lt;includes&amp;gt;&amp;gt;&lt;/font&gt;&lt;/span&gt;" style="text;whiteSpace=wrap;html=1;fontSize=15;fontFamily=Times New Roman;" parent="1" vertex="1">
          <mxGeometry x="299" y="280" width="80" height="30" as="geometry" />
        </mxCell>
        <mxCell id="la1zOp_KD3fSP7tozzDj-82" value="&lt;span style=&quot;color: rgb(0 , 0 , 0) ; font-family: &amp;#34;courier&amp;#34; ; font-style: normal ; font-weight: 400 ; letter-spacing: normal ; text-align: center ; text-indent: 0px ; text-transform: none ; word-spacing: 0px ; background-color: rgb(255 , 255 , 255) ; display: inline ; float: none&quot;&gt;&lt;font style=&quot;font-size: 10px&quot;&gt;&amp;lt;&amp;lt;includes&amp;gt;&amp;gt;&lt;/font&gt;&lt;/span&gt;" style="text;whiteSpace=wrap;html=1;fontSize=15;fontFamily=Times New Roman;" parent="1" vertex="1">
          <mxGeometry x="299" y="190" width="80" height="30" as="geometry" />
        </mxCell>
      </root>
    </mxGraphModel>
  </diagram>
  <diagram id="YvGjOh8JzGsstPxzjIez" name="Page-2">
    <mxGraphModel dx="1038" dy="539" grid="1" gridSize="10" guides="1" tooltips="1" connect="1" arrows="1" fold="1" page="1" pageScale="1" pageWidth="827" pageHeight="1169" math="0" shadow="0">
      <root>
        <mxCell id="soB2Op5GEygK01k200D7-0" />
        <mxCell id="soB2Op5GEygK01k200D7-1" parent="soB2Op5GEygK01k200D7-0" />
        <mxCell id="soB2Op5GEygK01k200D7-2" value="Cashier" style="shape=umlLifeline;participant=umlActor;perimeter=lifelinePerimeter;whiteSpace=wrap;html=1;container=1;collapsible=0;recursiveResize=0;verticalAlign=top;spacingTop=36;outlineConnect=0;" vertex="1" parent="soB2Op5GEygK01k200D7-1">
          <mxGeometry x="160" y="100" width="20" height="370" as="geometry" />
        </mxCell>
        <mxCell id="soB2Op5GEygK01k200D7-3" value="Cash register system" style="shape=umlLifeline;perimeter=lifelinePerimeter;whiteSpace=wrap;html=1;container=1;collapsible=0;recursiveResize=0;outlineConnect=0;" vertex="1" parent="soB2Op5GEygK01k200D7-1">
          <mxGeometry x="265" y="100" width="100" height="370" as="geometry" />
        </mxCell>
        <mxCell id="soB2Op5GEygK01k200D7-11" value="" style="html=1;points=[];perimeter=orthogonalPerimeter;" vertex="1" parent="soB2Op5GEygK01k200D7-3">
          <mxGeometry x="45" y="150" width="10" height="30" as="geometry" />
        </mxCell>
        <mxCell id="soB2Op5GEygK01k200D7-12" value="Signals the end" style="html=1;verticalAlign=bottom;endArrow=block;entryX=0;entryY=0;rounded=0;" edge="1" parent="soB2Op5GEygK01k200D7-3" target="soB2Op5GEygK01k200D7-11">
          <mxGeometry relative="1" as="geometry">
            <mxPoint x="-95" y="150" as="sourcePoint" />
          </mxGeometry>
        </mxCell>
        <mxCell id="soB2Op5GEygK01k200D7-13" value="Display discription" style="html=1;verticalAlign=bottom;endArrow=open;dashed=1;endSize=8;exitX=0;exitY=0.95;rounded=0;" edge="1" parent="soB2Op5GEygK01k200D7-3" source="soB2Op5GEygK01k200D7-11">
          <mxGeometry relative="1" as="geometry">
            <mxPoint x="-95" y="179" as="targetPoint" />
          </mxGeometry>
        </mxCell>
        <mxCell id="soB2Op5GEygK01k200D7-14" value="" style="html=1;points=[];perimeter=orthogonalPerimeter;" vertex="1" parent="soB2Op5GEygK01k200D7-3">
          <mxGeometry x="45" y="210" width="10" height="30" as="geometry" />
        </mxCell>
        <mxCell id="soB2Op5GEygK01k200D7-15" value="Input the cash amount" style="html=1;verticalAlign=bottom;endArrow=block;entryX=0;entryY=0;rounded=0;" edge="1" parent="soB2Op5GEygK01k200D7-3" target="soB2Op5GEygK01k200D7-14">
          <mxGeometry relative="1" as="geometry">
            <mxPoint x="-95" y="210" as="sourcePoint" />
          </mxGeometry>
        </mxCell>
        <mxCell id="soB2Op5GEygK01k200D7-16" value="Display return amount" style="html=1;verticalAlign=bottom;endArrow=open;dashed=1;endSize=8;exitX=0;exitY=0.95;rounded=0;" edge="1" parent="soB2Op5GEygK01k200D7-3" source="soB2Op5GEygK01k200D7-14">
          <mxGeometry relative="1" as="geometry">
            <mxPoint x="-95" y="239" as="targetPoint" />
          </mxGeometry>
        </mxCell>
        <mxCell id="soB2Op5GEygK01k200D7-17" value="" style="html=1;points=[];perimeter=orthogonalPerimeter;" vertex="1" parent="soB2Op5GEygK01k200D7-3">
          <mxGeometry x="45" y="260" width="10" height="30" as="geometry" />
        </mxCell>
        <mxCell id="soB2Op5GEygK01k200D7-18" value="Registers the sale&amp;nbsp;" style="html=1;verticalAlign=bottom;endArrow=block;entryX=0;entryY=0;rounded=0;" edge="1" parent="soB2Op5GEygK01k200D7-3" target="soB2Op5GEygK01k200D7-17">
          <mxGeometry relative="1" as="geometry">
            <mxPoint x="-95" y="260" as="sourcePoint" />
          </mxGeometry>
        </mxCell>
        <mxCell id="soB2Op5GEygK01k200D7-19" value="Print receipe" style="html=1;verticalAlign=bottom;endArrow=open;dashed=1;endSize=8;exitX=0;exitY=0.95;rounded=0;" edge="1" parent="soB2Op5GEygK01k200D7-3" source="soB2Op5GEygK01k200D7-17">
          <mxGeometry relative="1" as="geometry">
            <mxPoint x="-95" y="289" as="targetPoint" />
          </mxGeometry>
        </mxCell>
        <mxCell id="soB2Op5GEygK01k200D7-4" value="&lt;span style=&quot;font-size: 11.0pt ; font-family: &amp;#34;times new roman&amp;#34; , serif&quot;&gt;Inventory management system&lt;/span&gt;" style="shape=umlLifeline;perimeter=lifelinePerimeter;whiteSpace=wrap;html=1;container=1;collapsible=0;recursiveResize=0;outlineConnect=0;" vertex="1" parent="soB2Op5GEygK01k200D7-1">
          <mxGeometry x="450" y="100" width="100" height="370" as="geometry" />
        </mxCell>
        <mxCell id="soB2Op5GEygK01k200D7-20" value="" style="html=1;points=[];perimeter=orthogonalPerimeter;" vertex="1" parent="soB2Op5GEygK01k200D7-4">
          <mxGeometry x="49" y="270" width="10" height="30" as="geometry" />
        </mxCell>
        <mxCell id="soB2Op5GEygK01k200D7-7" value="" style="html=1;points=[];perimeter=orthogonalPerimeter;" vertex="1" parent="soB2Op5GEygK01k200D7-1">
          <mxGeometry x="310" y="190" width="10" height="30" as="geometry" />
        </mxCell>
        <mxCell id="soB2Op5GEygK01k200D7-8" value="Record items&amp;nbsp;" style="html=1;verticalAlign=bottom;endArrow=block;entryX=0;entryY=0;rounded=0;" edge="1" target="soB2Op5GEygK01k200D7-7" parent="soB2Op5GEygK01k200D7-1">
          <mxGeometry relative="1" as="geometry">
            <mxPoint x="170" y="190" as="sourcePoint" />
          </mxGeometry>
        </mxCell>
        <mxCell id="soB2Op5GEygK01k200D7-9" value="Display discription" style="html=1;verticalAlign=bottom;endArrow=open;dashed=1;endSize=8;exitX=0;exitY=0.95;rounded=0;" edge="1" source="soB2Op5GEygK01k200D7-7" parent="soB2Op5GEygK01k200D7-1">
          <mxGeometry relative="1" as="geometry">
            <mxPoint x="170" y="219" as="targetPoint" />
          </mxGeometry>
        </mxCell>
        <mxCell id="soB2Op5GEygK01k200D7-21" value="&lt;font style=&quot;font-size: 12px&quot;&gt;Number of items sold&amp;nbsp;&lt;/font&gt;" style="html=1;verticalAlign=bottom;startArrow=oval;endArrow=block;startSize=8;rounded=0;" edge="1" target="soB2Op5GEygK01k200D7-20" parent="soB2Op5GEygK01k200D7-1">
          <mxGeometry relative="1" as="geometry">
            <mxPoint x="319" y="375" as="sourcePoint" />
          </mxGeometry>
        </mxCell>
      </root>
    </mxGraphModel>
  </diagram>
</mxfile>
